<svg xmlns="http://www.w3.org/2000/svg" viewBox="0 0 20 16">
<path fill="currentColor" d="M7.979253 14.799973c-.024978-.066637-.033581-.123291-.02511-.169131.008429-.045534-.02061-.083274-.087205-.112345-.066593-.029072-.099825-.052145-.099825-.068607 0-.016637-.047729-.029203-.143406-.037434-.095633-.008362-.143362-.01261-.143362-.01261H3.590566c-.54856 0-1.01821-.195662-1.408908-.5876-.390611-.391677-.585895-.862423-.585895-1.412328V3.599776c0-.549993.19524-1.020696.585895-1.412372.390699-.39172.860349-.587645 1.408908-.587645h3.98956c.108079 0 .193057-.026882.255546-.081172.062227-.054159.103712-.135462.124585-.24378.020786-.108317.033319-.206126.037511-.293647.004105-.087433.002096-.19794-.006288-.331256C7.983227.51663 7.979078.433313 7.979078.399819c0-.108317-.03952-.20188-.118428-.281213C7.781655.039623 7.688205 0 7.58017 0H3.590566c-.988996 0-1.83476.352097-2.53716 1.056246C.351178 1.760396 0 2.60824 0 3.599907v8.799967c0 .99158.351179 1.839642 1.053405 2.54353C1.755807 15.647903 2.60157 16 3.590565 16h3.989736c.108079 0 .1931-.027233.255546-.081172.062227-.054246.103712-.135462.124585-.243911.020786-.108186.033319-.206477.03751-.293648.004106-.08752.002058-.197808-.006287-.331125-.008341-.133448-.012402-.216722-.012402-.250171z"/>
<path fill="currentColor" d="M19.753925 7.099192L12.708977.23955C12.545048.080027 12.35073 0 12.126245 0c-.224484 0-.418803.080027-.582914.23955-.164064.159745-.246029.34908-.246029.567519v3.6315H5.495564c-.22462 0-.418803.080026-.582868.23955-.164065.159744-.24603.348946-.24603.567518v4.84206c0 .218527.081965.40773.24603.567385.164246.159435.358385.239683.582868.239683h5.801784v3.631456c0 .218395.081964.407774.246029.567386.164065.159744.358384.239726.582913.239726.224439 0 .418758-.079982.582733-.239726l7.044902-6.859334C19.91799 8.074397 20 7.88546 20 7.666843c0-.218527-.08201-.407906-.246075-.56765z"/>
</svg>