<svg xmlns="http://www.w3.org/2000/svg" viewBox="0 0 250 132">
  <g fill="currentColor">
    <path d="M112.445351 122.75296h2.402268l-1.455782 6.950663h3.83492l-.355102 1.701275h-6.237188l1.810884-8.651938M122.585487 129.846888c1.692517 0 2.307937-1.581428 2.556463-2.779898.248526-1.210408.094785-1.809643-.082993-2.193061-.248526-.479388-.769161-.623112-1.289796-.623112-1.562358 0-2.272562 1.366071-2.59229 2.85199-.2839 1.37801-.165533 2.744081 1.408616 2.744081zm-1.964625-6.135153c1.313378-1.1025 2.970521-1.19801 3.597732-1.19801 3.408617 0 3.810884 2.48005 3.360998 4.589082-.721996 3.451224-3.360998 4.505969-5.396826 4.505969-2.272109 0-4.118367-1.270561-3.44399-4.493572.11882-.575357.580045-2.300969 1.882086-3.403469zM132.866667 122.75296l-1.077098 5.14102c-.094784.467449-.165533.946837 0 1.305918.224943.479388.733787.707143 1.313379.707143 1.503401 0 1.953288-1.234285 2.142403-2.097092l1.053515-5.05699h2.307937l-1.041724 5.009235c-.20136.958317-.556009 2.001123-1.219047 2.636174-1.04127 1.030408-2.61542 1.234285-3.692517 1.234285-4.035828 0-3.515193-2.540663-3.219048-3.95449l1.04127-4.925203h2.39093M141.75469 129.864838h1.090228c1.686356-.01316 2.916507-.73793 3.372712-2.874711.583496-2.785516-1.495906-2.785516-2.269366-2.785516l-1.001805-.01316-1.191769 5.673387zm-1.0397-7.415858h3.867298c1.090228 0 2.522974.11454 3.33433.763275 1.153873.928506 1.204887 2.442384.912896 3.803217-.430941 2.0354-1.394365 3.536119-3.39749 4.260889-1.014437.356292-2.130415.356292-2.764438.356292h-3.892076l1.93948-9.183673z"/>
  </g>
  <g>
    <path d="M158.948098 128.096535l-.363642-3.853907h-.03747l-2.055995 3.853907h2.457107zm-1.41662-5.647555h3.059015l1.654405 9.183673h-2.83324l-.237784-1.844338H155.5509l-1.003019 1.844338h-2.507066l5.490663-9.183673zM165.110804 122.44898h3.329105l1.567726 6.843158 1.350962-6.843158h2.11079l-1.845035 9.183673h-3.257005l-1.567726-7.1356-1.411508 7.1356h-2.122807l1.845498-9.183673M177.469382 129.864838h1.090686c1.685825-.01316 2.915943-.73793 3.372136-2.874711.58348-2.785516-1.496352-2.785516-2.269305-2.785516l-1.001779-.01316-1.191738 5.673387zm-1.039673-7.415858h3.86671c1.090685 0 2.523394.11454 3.334728.763275 1.153843.928506 1.204369 2.442384.912872 3.803217-.43093 2.0354-1.394814 3.536119-3.397886 4.260889-1.01441.356292-2.129872.356292-2.763879.356292h-3.892458l1.939913-9.183673z"/>
  </g>
  <g fill="currentColor">
    <path d="M192.360906 126.570472h1.115392c.614379 0 1.604878 0 1.855625-1.234108.237778-1.11908-.639357-1.18293-1.36662-1.18293h-1.103383l-.501014 2.417038zm-1.667324-4.121492h4.161826c.702284 0 1.616886 0 2.268733.470833.664816.470345 1.002989 1.29747.752241 2.493073-.338172 1.615258-1.504482 2.314684-1.892612 2.505746-.78971.39431-1.880604.39431-2.369609.39431l-1.629376.012673-.689795 3.307038h-2.51948l1.918072-9.183673zM201.800792 126.467756h.894151c.524978 0 .78678 0 1.00198-.072092.560159-.167602.774901-.706684.834298-.982194.226622-1.066684-.703624-1.066684-1.394913-1.066684h-.894609l-.440907 2.12097zm-1.621535-3.714796h3.982333c1.550259 0 2.122753.095969 2.515687.623571.214742.263112.441364.7425.250837 1.676939-.202863.947296-.667986 1.354592-1.132653 1.606224-.620012.347602-1.156869.407296-1.40725.443113l-.011879.048214c1.669053.047755 1.597777.790714 1.514164 2.12097-.047517.586836-.11925 1.521734-.047517 2.132907h-2.58742c-.035638-.527142.047517-1.186071.13113-1.953367.107371-1.042347.154889-1.426224-.91791-1.426224h-1.00198l-.715048 3.379591h-2.396893l1.824399-8.651938zM212.039902 129.846888c1.704691 0 2.324703-1.581428 2.575541-2.779898.249924-1.210408.095035-1.809643-.083613-2.193061-.25038-.479388-.7749-.623112-1.299878-.623112-1.57356 0-2.289065 1.366071-2.611179 2.85199-.286018 1.37801-.166768 2.744081 1.41913 2.744081zm-1.979744-6.135153c1.324094-1.1025 2.993147-1.19801 3.625038-1.19801 3.434055 0 3.839324 2.48005 3.38608 4.589082-.726927 3.451224-3.38608 4.505969-5.4371 4.505969-2.289065 0-4.149102-1.270561-3.469692-4.493572.11925-.575357.584374-2.300969 1.895674-3.403469zM222.39735 122.75296l-1.084679 5.14102c-.095492.467449-.167225.946837 0 1.305918.226165.479388.739263.707143 1.32318.707143 1.51462 0 1.967408-1.234285 2.158392-2.097092l1.061377-5.05699h2.324703l-1.04904 5.009235c-.202864.958317-.560616 2.001123-1.228146 2.636174-1.04904 1.030408-2.634937 1.234285-3.720073 1.234285-4.065946 0-3.541426-2.540663-3.24307-3.95449l1.04904-4.925203h2.408316M231.550604 129.864838h1.090712c1.685868-.01316 2.916017-.73793 3.372221-2.874711.583495-2.785516-1.495904-2.785516-2.269362-2.785516l-1.001318-.01316-1.192253 5.673387zm-1.039213-7.415858h3.866806c1.090227 0 2.522971.11454 3.334811.763275 1.153386.928506 1.2044 2.442384.91241 3.803217-.430942 2.0354-1.394364 3.536119-3.397971 4.260889-1.014436.356292-2.129926.356292-2.763948.356292h-3.89207l1.939962-9.183673z"/>
  </g>
  <g fill="currentColor">
    <path d="M35.673994 32.892215h-8.822926L22.84833 52.078838 0 62.244898 13.508002 0h20.08464l-3.581588 17.600192h8.694593L42.286783 0h19.958115L51.500133 52.078838h-19.82933l4.003191-19.186623M69.20949 0h38.953775l-2.815795 13.55088H86.176273l-1.22741 5.549846h17.655285l-2.88827 13.55088h-17.65482l-1.22741 5.83833h19.821139l-2.88827 13.55088H58.163265L69.209491 0M138.259327 30.99398l.072461-19.60534h-.144923l-8.734425 19.60534h8.806887zM127.719862 0h26.781575l5.702645 52.040816h-21.367384l-.216456-8.360944h-14.942444l-3.898534 8.360944H100L127.719862 0zM186.935448 40.219915h2.013094c3.307655 0 5.464641-1.2249 7.262129-3.315715 1.79795-2.162242 3.019872-5.83833 4.098827-10.88356 1.078493-5.045693 1.365813-8.721782.503389-10.884023-.862887-2.090352-2.516946-3.315715-5.824601-3.315715h-2.013093l-6.039745 28.399012zM175.28671 0h24.375507c20.78007 0 25.094503 11.172508 21.786848 26.597145-3.307655 15.713122-15.603212 25.443671-31.565459 25.443671h-25.597892L175.28671 0zM48.213993 69.26342l-2.098324 9.874792h2.749191c4.775352 0 6.728885-2.162241 7.380217-5.189472.723496-3.459957-1.230036-4.68532-5.354522-4.68532h-2.676562zm-6.367137 29.840507h2.893984c5.064937 0 7.45238-1.657626 8.24804-5.477956.651332-3.171473-1.446992-4.684857-6.294508-4.684857h-2.677028l-2.170488 10.162813zm-11.38924-40.940662h31.720686c11.286816 0 15.77305 4.75721 13.963844 13.478991-1.085244 5.04523-4.12402 9.514419-12.299896 11.316286v.143779c7.814128 1.081584 9.76766 6.63143 8.609788 12.18174-1.88137 8.937912-10.201572 14.920021-23.22543 14.920021H19.387755l11.06986-52.040817zM107.934522 88.204715l.071511-19.648277h-.142564l-8.619836 19.648277h8.690889zM97.533784 57.142857h26.430222l5.627831 52.154787h-21.08706l-.214075-8.379256H93.544291l-3.84693 8.379256-25.411647 11.110519 33.24807-63.265306zM144.63964 57.83015h24.316807l4.324609 31.447058h.141873l6.522041-31.447059h16.447659l-10.846651 51.955668h-24.317263l-4.182737-31.662836h-.141416l-6.66437 31.662836h-16.447659l10.847107-51.955668M222.539184 80.497925h26.372821l-5.742425 27.20096c-8.365474 2.086932-17.865474 3.454296-26.230949 3.454296-18.432965 0-25.02617-11.441776-21.693757-27.344966 3.331957-15.90319 14.746098-27.344967 33.745642-27.344967 15.738752 0 22.828284 5.252753 20.488524 17.414097h-18.999544c.283745-1.654913-.141873-2.734265-.850781-3.382061-.708907-.647796-1.842977-.935346-3.119375-.935346-3.048668 0-5.387971 1.583142-6.805787 3.670074-1.417815 2.086932-2.764922 7.196141-3.686866 11.585783-1.063362 5.036975-1.346651 8.49127-.779616 10.146184.708907 2.158704 2.552341 3.09405 5.17539 3.09405 1.914142 0 3.757119-.28755 5.600552-1.07889l1.275943-6.260795h-6.947659l2.197887-10.21842"/>
  </g>
</svg>